<svg width="79.000000" height="79.000000" viewBox="0 0 79 79" fill="none" xmlns="http://www.w3.org/2000/svg" xmlns:xlink="http://www.w3.org/1999/xlink">
	<desc>
			Created with Pixso.
	</desc>
	<defs>
		<clipPath id="clip7_209">
			<rect id="fi_18577309" rx="0.000000" width="78.000000" height="78.000000" transform="translate(0.500000 0.500000)" fill="white" fill-opacity="0"/>
		</clipPath>
	</defs>
	<rect id="fi_18577309" rx="0.000000" width="78.000000" height="78.000000" transform="translate(0.500000 0.500000)" fill="#FFFFFF" fill-opacity="0"/>
	<g clip-path="url(#clip7_209)">
		<path id="Vector" d="M46.68 75.05C46.18 75.05 45.68 75 45.19 74.91L11.99 69.06C10.7 68.83 9.58 68.12 8.83 67.05C8.08 65.98 7.79 64.68 8.02 63.4L16.69 14.24C17.1 11.9 19.13 10.2 21.5 10.2C21.78 10.2 22.06 10.23 22.35 10.28L44.01 14.1C44.06 13.36 44.27 12.62 44.66 11.94L46.43 8.88C47.35 7.28 48.84 6.15 50.61 5.68C51.19 5.52 51.79 5.44 52.39 5.44C52.94 5.44 53.5 5.51 54.03 5.64C54.53 5.23 55.11 4.93 55.73 4.77C56.53 4.24 57.48 3.95 58.47 3.95C59.34 3.95 60.2 4.17 60.95 4.61L64.05 6.4C65.75 7.38 66.65 9.22 66.52 11.05C66.81 12.13 66.68 13.32 66.09 14.35L64.18 17.65L67 18.15C68.29 18.38 69.41 19.09 70.16 20.16C70.91 21.23 71.2 22.53 70.97 23.81L64.32 61.52C63.92 63.78 62.67 65.75 60.79 67.07L51.61 73.49C50.16 74.51 48.46 75.05 46.68 75.05Z" fill="#F6F0E0" fill-opacity="1.000000" fill-rule="nonzero"/>
		<path id="Vector" d="M67.48 23.2L60.83 60.9C60.59 62.22 59.85 63.4 58.75 64.16L49.58 70.58C48.48 71.35 47.13 71.65 45.81 71.42L12.6 65.57C11.87 65.44 11.39 64.74 11.52 64.01L20.18 14.86C20.31 14.13 21.01 13.64 21.73 13.77L66.39 21.64C67.12 21.77 67.6 22.47 67.48 23.2Z" fill="#FFFFFF" fill-opacity="1.000000" fill-rule="nonzero"/>
		<path id="Vector" d="M62.56 26.73C62.44 27.42 61.84 27.91 61.16 27.91C61.08 27.91 61 27.9 60.91 27.88L24.74 21.51C23.97 21.37 23.46 20.63 23.59 19.86C23.73 19.09 24.46 18.57 25.24 18.71L61.41 25.09C62.18 25.22 62.69 25.96 62.56 26.73ZM60.42 30.68L24.25 24.3C23.47 24.16 22.74 24.68 22.61 25.45C22.47 26.22 22.99 26.96 23.76 27.1L59.93 33.47C60.01 33.49 60.1 33.5 60.18 33.5C60.85 33.5 61.45 33.01 61.57 32.32C61.71 31.55 61.19 30.82 60.42 30.68ZM52.68 36.27L49.88 35.77C49.74 35.75 49.62 35.84 49.6 35.98C49.57 36.11 49.66 36.24 49.8 36.26L52.59 36.76C52.61 36.76 52.62 36.76 52.64 36.76C52.75 36.76 52.86 36.68 52.88 36.55C52.9 36.42 52.81 36.29 52.68 36.27ZM31.63 33.06C31.64 33.06 31.66 33.06 31.67 33.06C31.79 33.06 31.89 32.98 31.92 32.86C31.94 32.72 31.85 32.59 31.71 32.57L28.92 32.08C28.78 32.05 28.66 32.14 28.63 32.28C28.61 32.41 28.7 32.54 28.83 32.57L31.63 33.06ZM59.67 37.5L56.87 37.01C56.73 36.98 56.61 37.07 56.58 37.21C56.56 37.34 56.65 37.47 56.79 37.5L59.58 37.99C59.6 37.99 59.61 37.99 59.62 37.99C59.74 37.99 59.85 37.91 59.87 37.79C59.89 37.65 59.8 37.52 59.67 37.5ZM45.69 35.03L42.9 34.54C42.75 34.52 42.63 34.61 42.61 34.74C42.58 34.88 42.67 35.01 42.81 35.03L45.6 35.52C45.62 35.53 45.63 35.53 45.65 35.53C45.77 35.53 45.87 35.44 45.89 35.32C45.92 35.19 45.83 35.06 45.69 35.03ZM21.85 31.33L24.64 31.83C24.66 31.83 24.67 31.83 24.68 31.83C24.8 31.83 24.91 31.75 24.93 31.63C24.95 31.49 24.86 31.36 24.73 31.34L21.93 30.85C21.79 30.82 21.67 30.91 21.64 31.05C21.62 31.18 21.71 31.31 21.85 31.33ZM38.62 34.29C38.63 34.29 38.65 34.3 38.66 34.3C38.78 34.3 38.88 34.21 38.9 34.09C38.93 33.96 38.84 33.83 38.7 33.8L35.91 33.31C35.77 33.28 35.64 33.38 35.62 33.51C35.6 33.65 35.69 33.78 35.82 33.8L38.62 34.29ZM37.92 39.68C37.94 39.55 37.85 39.42 37.72 39.39L34.92 38.9C34.78 38.87 34.66 38.97 34.63 39.1C34.61 39.24 34.7 39.37 34.84 39.39L37.63 39.88C37.65 39.89 37.66 39.89 37.67 39.89C37.79 39.89 37.9 39.8 37.92 39.68ZM30.93 38.45C30.95 38.31 30.86 38.18 30.73 38.16L27.93 37.67C27.79 37.64 27.67 37.73 27.65 37.87C27.62 38 27.71 38.13 27.85 38.16L30.64 38.65C30.66 38.65 30.67 38.65 30.69 38.65C30.8 38.65 30.91 38.57 30.93 38.45ZM23.94 37.22C23.97 37.08 23.88 36.95 23.74 36.93L20.95 36.44C20.8 36.41 20.68 36.5 20.66 36.64C20.63 36.77 20.72 36.9 20.86 36.93L23.66 37.42C23.67 37.42 23.68 37.42 23.7 37.42C23.82 37.42 23.92 37.34 23.94 37.22ZM51.69 41.86L48.9 41.36C48.76 41.34 48.63 41.43 48.61 41.57C48.59 41.7 48.68 41.83 48.81 41.85L51.61 42.35C51.62 42.35 51.64 42.35 51.65 42.35C51.77 42.35 51.87 42.27 51.89 42.15C51.92 42.01 51.83 41.88 51.69 41.86ZM44.7 40.63L41.91 40.13C41.77 40.1 41.65 40.2 41.62 40.33C41.6 40.47 41.69 40.6 41.82 40.62L44.62 41.11C44.63 41.12 44.65 41.12 44.66 41.12C44.78 41.12 44.88 41.03 44.91 40.91C44.93 40.78 44.84 40.65 44.7 40.63ZM58.68 43.09L55.89 42.6C55.74 42.57 55.62 42.66 55.6 42.8C55.57 42.93 55.66 43.06 55.8 43.09L58.59 43.58C58.61 43.58 58.62 43.58 58.64 43.58C58.76 43.58 58.86 43.5 58.88 43.38C58.91 43.24 58.82 43.11 58.68 43.09ZM43.72 46.22L40.92 45.72C40.78 45.69 40.66 45.79 40.64 45.92C40.61 46.06 40.7 46.19 40.84 46.21L43.63 46.7C43.65 46.71 43.66 46.71 43.68 46.71C43.79 46.71 43.9 46.62 43.92 46.5C43.94 46.37 43.85 46.24 43.72 46.22ZM36.73 44.98L33.94 44.49C33.79 44.46 33.67 44.56 33.65 44.69C33.63 44.83 33.72 44.96 33.85 44.98L36.65 45.47C36.66 45.48 36.67 45.48 36.69 45.48C36.81 45.48 36.91 45.39 36.93 45.27C36.96 45.14 36.87 45.01 36.73 44.98ZM29.74 43.75L26.95 43.26C26.81 43.23 26.68 43.33 26.66 43.46C26.64 43.6 26.73 43.72 26.86 43.75L29.66 44.24C29.67 44.24 29.69 44.24 29.7 44.24C29.82 44.24 29.92 44.16 29.95 44.04C29.97 43.9 29.88 43.77 29.74 43.75ZM22.76 42.52L19.96 42.03C19.82 42 19.7 42.09 19.67 42.23C19.65 42.36 19.74 42.49 19.87 42.52L22.67 43.01C22.68 43.01 22.7 43.01 22.71 43.01C22.83 43.01 22.94 42.93 22.96 42.81C22.98 42.67 22.89 42.54 22.76 42.52ZM21.77 48.11L18.97 47.62C18.83 47.59 18.71 47.68 18.69 47.82C18.66 47.95 18.75 48.08 18.89 48.11L21.68 48.6C21.7 48.6 21.71 48.6 21.73 48.6C21.85 48.6 21.95 48.52 21.97 48.4C21.99 48.26 21.9 48.13 21.77 48.11ZM28.76 49.34L25.96 48.85C25.82 48.82 25.7 48.92 25.67 49.05C25.65 49.19 25.74 49.32 25.88 49.34L28.67 49.83C28.69 49.83 28.7 49.83 28.71 49.83C28.83 49.83 28.94 49.75 28.96 49.63C28.98 49.49 28.89 49.37 28.76 49.34ZM56.71 54.27L53.91 53.78C53.77 53.75 53.65 53.84 53.63 53.98C53.6 54.12 53.69 54.24 53.83 54.27L56.62 54.76C56.64 54.76 56.65 54.76 56.67 54.76C56.78 54.76 56.89 54.68 56.91 54.56C56.93 54.42 56.84 54.29 56.71 54.27ZM49.72 53.04L46.93 52.55C46.78 52.52 46.66 52.61 46.64 52.75C46.62 52.88 46.71 53.01 46.84 53.04L49.63 53.53C49.65 53.53 49.66 53.53 49.68 53.53C49.8 53.53 49.9 53.45 49.92 53.33C49.95 53.19 49.86 53.06 49.72 53.04ZM35.75 50.57L32.95 50.08C32.81 50.06 32.69 50.15 32.66 50.28C32.64 50.42 32.73 50.55 32.86 50.57L35.66 51.06C35.67 51.07 35.69 51.07 35.7 51.07C35.82 51.07 35.93 50.98 35.95 50.86C35.97 50.73 35.88 50.6 35.75 50.57ZM42.73 51.81L39.94 51.31C39.8 51.29 39.67 51.38 39.65 51.52C39.63 51.65 39.72 51.78 39.85 51.8L42.65 52.3C42.66 52.3 42.68 52.3 42.69 52.3C42.81 52.3 42.91 52.21 42.93 52.09C42.96 51.96 42.87 51.83 42.73 51.81ZM34.76 56.16L31.96 55.67C31.82 55.65 31.7 55.74 31.68 55.87C31.65 56.01 31.74 56.14 31.88 56.16L34.67 56.65C34.69 56.66 34.7 56.66 34.72 56.66C34.84 56.66 34.94 56.57 34.96 56.45C34.98 56.32 34.89 56.19 34.76 56.16ZM41.75 57.4L38.95 56.9C38.81 56.88 38.69 56.97 38.66 57.11C38.64 57.24 38.73 57.37 38.87 57.39L41.66 57.89C41.68 57.89 41.69 57.89 41.7 57.89C41.82 57.89 41.93 57.8 41.95 57.68C41.97 57.55 41.88 57.42 41.75 57.4ZM27.77 54.93L24.98 54.44C24.83 54.41 24.71 54.51 24.69 54.64C24.66 54.78 24.75 54.91 24.89 54.93L27.69 55.42C27.7 55.42 27.71 55.43 27.73 55.43C27.85 55.43 27.95 55.34 27.97 55.22C28 55.09 27.91 54.96 27.77 54.93ZM20.78 53.7L17.99 53.21C17.85 53.18 17.72 53.27 17.7 53.41C17.68 53.54 17.77 53.67 17.9 53.7L20.7 54.19C20.71 54.19 20.73 54.19 20.74 54.19C20.86 54.19 20.96 54.11 20.99 53.99C21.01 53.85 20.92 53.72 20.78 53.7ZM19.8 59.29L17 58.8C16.86 58.77 16.74 58.87 16.72 59C16.69 59.14 16.78 59.26 16.92 59.29L19.71 59.78C19.73 59.78 19.74 59.78 19.76 59.78C19.87 59.78 19.98 59.7 20 59.58C20.02 59.44 19.93 59.31 19.8 59.29ZM40.76 62.99L37.97 62.49C37.82 62.47 37.7 62.56 37.68 62.7C37.66 62.83 37.75 62.96 37.88 62.98L40.68 63.48C40.69 63.48 40.71 63.48 40.72 63.48C40.84 63.48 40.94 63.4 40.96 63.28C40.99 63.14 40.9 63.01 40.76 62.99ZM26.79 60.52L23.99 60.03C23.85 60 23.73 60.1 23.7 60.23C23.68 60.37 23.77 60.5 23.9 60.52L26.7 61.01C26.71 61.02 26.73 61.02 26.74 61.02C26.86 61.02 26.97 60.93 26.99 60.81C27.01 60.68 26.92 60.55 26.79 60.52ZM33.77 61.76L30.98 61.26C30.84 61.23 30.72 61.33 30.69 61.46C30.67 61.6 30.76 61.73 30.89 61.75L33.69 62.24C33.7 62.25 33.72 62.25 33.73 62.25C33.85 62.25 33.95 62.16 33.98 62.04C34 61.91 33.91 61.78 33.77 61.76Z" fill="#414785" fill-opacity="1.000000" fill-rule="nonzero"/>
		<path id="Vector" d="M60.01 62.88C59.67 63.38 59.25 63.81 58.75 64.16L49.58 70.59C49.08 70.93 48.53 71.18 47.95 71.33L49.52 62.4C49.65 61.67 50.35 61.18 51.07 61.31L60.01 62.88Z" fill="#81C6D5" fill-opacity="1.000000" fill-rule="nonzero"/>
		<path id="Vector" d="M48.97 15.84C48.73 15.84 48.48 15.78 48.26 15.65C47.58 15.26 47.35 14.39 47.74 13.71L49.5 10.65C49.95 9.88 50.66 9.33 51.52 9.1C52.38 8.87 53.27 8.99 54.04 9.44L55.79 10.45C56.47 10.84 56.71 11.71 56.31 12.39C55.92 13.06 55.05 13.3 54.37 12.91L52.62 11.89C52.47 11.81 52.33 11.83 52.26 11.84C52.18 11.86 52.05 11.92 51.96 12.07L50.2 15.13C49.93 15.59 49.46 15.84 48.97 15.84Z" fill="#E78836" fill-opacity="1.000000" fill-rule="nonzero"/>
		<path id="Vector" d="M62.28 9.47L59.18 7.68C58.5 7.29 57.64 7.52 57.24 8.2C56.85 8.88 57.08 9.75 57.76 10.14L60.86 11.93C61.09 12.06 61.33 12.12 61.57 12.12C62.06 12.12 62.54 11.87 62.8 11.41C63.19 10.73 62.96 9.86 62.28 9.47Z" fill="#E78836" fill-opacity="1.000000" fill-rule="nonzero"/>
		<path id="Vector" d="M47.03 34.28C46.28 34.53 45.47 34.07 45.31 33.28C44.72 30.45 45.19 27.5 46.64 25L56.11 8.59C56.34 8.19 56.85 8.06 57.25 8.29L62.71 11.44C63.11 11.67 63.25 12.18 63.02 12.58L53.54 28.99C52.1 31.49 49.78 33.38 47.03 34.28Z" fill="#F9CC4B" fill-opacity="1.000000" fill-rule="nonzero"/>
	</g>
</svg>
