<svg width="64.000000" height="64.000000" viewBox="0 0 64 64" fill="none" xmlns="http://www.w3.org/2000/svg" xmlns:xlink="http://www.w3.org/1999/xlink">
	<desc>
			Created with Pixso.
	</desc>
	<defs>
		<clipPath id="clip7_234">
			<rect id="fi-sr-calendar" rx="0.000000" width="27.000000" height="27.000000" transform="translate(18.500000 18.500000)" fill="white" fill-opacity="0"/>
		</clipPath>
	</defs>
	<circle id="Ellipse 3" cx="32.000000" cy="32.000000" r="32.000000" fill="#FFFFFF" fill-opacity="1.000000"/>
	<rect id="fi-sr-calendar" rx="0.000000" width="27.000000" height="27.000000" transform="translate(18.500000 18.500000)" fill="#FFFFFF" fill-opacity="0"/>
	<g clip-path="url(#clip7_234)">
		<path id="Vector" d="M18 40.16C18 41.71 18.61 43.19 19.71 44.28C20.8 45.38 22.28 45.99 23.83 46L40.16 46C41.71 45.99 43.19 45.38 44.28 44.28C45.38 43.19 45.99 41.71 46 40.16L46 29.66L18 29.66L18 40.16ZM37.83 34.91C38.17 34.91 38.51 35.01 38.8 35.21C39.09 35.4 39.31 35.67 39.45 35.99C39.58 36.31 39.61 36.66 39.54 37C39.48 37.34 39.31 37.65 39.07 37.9C38.82 38.14 38.51 38.31 38.17 38.38C37.83 38.45 37.48 38.41 37.16 38.28C36.84 38.15 36.57 37.92 36.37 37.63C36.18 37.35 36.08 37.01 36.08 36.66C36.08 36.2 36.26 35.75 36.59 35.42C36.92 35.1 37.36 34.91 37.83 34.91ZM32 34.91C32.34 34.91 32.68 35.01 32.97 35.21C33.25 35.4 33.48 35.67 33.61 35.99C33.74 36.31 33.78 36.66 33.71 37C33.64 37.34 33.48 37.65 33.23 37.9C32.99 38.14 32.68 38.31 32.34 38.38C32 38.45 31.65 38.41 31.33 38.28C31.01 38.15 30.73 37.92 30.54 37.63C30.35 37.35 30.25 37.01 30.25 36.66C30.25 36.2 30.43 35.75 30.76 35.42C31.09 35.1 31.53 34.91 32 34.91ZM26.16 34.91C26.51 34.91 26.85 35.01 27.13 35.21C27.42 35.4 27.65 35.67 27.78 35.99C27.91 36.31 27.95 36.66 27.88 37C27.81 37.34 27.64 37.65 27.4 37.9C27.15 38.14 26.84 38.31 26.5 38.38C26.16 38.45 25.81 38.41 25.49 38.28C25.17 38.15 24.9 37.92 24.71 37.63C24.51 37.35 24.41 37.01 24.41 36.66C24.41 36.2 24.6 35.75 24.92 35.42C25.25 35.1 25.7 34.91 26.16 34.91Z" fill="#00303C" fill-opacity="1.000000" fill-rule="nonzero"/>
		<path id="Vector" d="M40.16 20.33L39 20.33L39 19.16C39 18.85 38.87 18.56 38.65 18.34C38.43 18.12 38.14 18 37.83 18C37.52 18 37.22 18.12 37 18.34C36.78 18.56 36.66 18.85 36.66 19.16L36.66 20.33L27.33 20.33L27.33 19.16C27.33 18.85 27.21 18.56 26.99 18.34C26.77 18.12 26.47 18 26.16 18C25.85 18 25.56 18.12 25.34 18.34C25.12 18.56 25 18.85 25 19.16L25 20.33L23.83 20.33C22.28 20.33 20.8 20.95 19.71 22.04C18.61 23.13 18 24.62 18 26.16L18 27.33L46 27.33L46 26.16C45.99 24.62 45.38 23.13 44.28 22.04C43.19 20.95 41.71 20.33 40.16 20.33Z" fill="#00303C" fill-opacity="1.000000" fill-rule="nonzero"/>
	</g>
</svg>
