<svg width="32.000000" height="32.000000" viewBox="0 0 32 32" fill="none" xmlns="http://www.w3.org/2000/svg" xmlns:xlink="http://www.w3.org/1999/xlink">
	<desc>
			Created with Pixso.
	</desc>
	<defs/>
	<path id="Vector" d="M25.33 0L6.66 0C2.98 0 0 2.98 0 6.66L0 25.33C0 29.01 2.98 31.99 6.66 32L25.33 32C29.01 31.99 31.99 29.01 32 25.33L32 6.66C31.99 2.98 29.01 0 25.33 0ZM26.66 10.77L14.32 23.11C13.28 24.15 11.59 24.15 10.55 23.11C10.55 23.11 10.55 23.11 10.55 23.11L5.33 17.88C4.81 17.36 4.81 16.52 5.33 16C5.85 15.47 6.7 15.47 7.22 16L12.44 21.22L24.78 8.88C25.3 8.36 26.15 8.36 26.66 8.88C27.18 9.4 27.18 10.25 26.66 10.77Z" fill="#3752FD" fill-opacity="1.000000" fill-rule="nonzero"/>
</svg>
