<svg width="24.000000" height="24.000000" viewBox="0 0 24 24" fill="none" xmlns="http://www.w3.org/2000/svg" xmlns:xlink="http://www.w3.org/1999/xlink">
	<desc>
			Created with Pixso.
	</desc>
	<defs>
		<clipPath id="clip10_141">
			<rect id="fi-sr-time-past" rx="0.000000" width="23.000000" height="23.000000" transform="translate(0.500000 0.500000)" fill="white" fill-opacity="0"/>
		</clipPath>
	</defs>
	<rect id="fi-sr-time-past" rx="0.000000" width="23.000000" height="23.000000" transform="translate(0.500000 0.500000)" fill="#FFFFFF" fill-opacity="0"/>
	<g clip-path="url(#clip10_141)">
		<path id="Vector" d="M12 0C9.04 0 6.19 1.09 4 3.07L4 1C4 0.73 3.89 0.48 3.7 0.29C3.51 0.1 3.26 0 3 0C2.73 0 2.48 0.1 2.29 0.29C2.1 0.48 2 0.73 2 1L2 4C2 4.79 2.31 5.55 2.87 6.12C3.44 6.68 4.2 7 5 7L8 7C8.26 7 8.51 6.89 8.7 6.7C8.89 6.51 9 6.26 9 6C9 5.73 8.89 5.48 8.7 5.29C8.51 5.1 8.26 5 8 5L5 5C4.96 4.99 4.93 4.98 4.89 4.97C6.52 3.33 8.67 2.31 10.97 2.07C13.28 1.84 15.59 2.41 17.51 3.69C19.44 4.97 20.86 6.88 21.53 9.1C22.21 11.31 22.1 13.69 21.21 15.82C20.33 17.96 18.73 19.73 16.69 20.82C14.65 21.91 12.3 22.26 10.03 21.81C7.76 21.35 5.72 20.13 4.26 18.34C2.79 16.55 1.99 14.31 2 12C2 11.73 1.89 11.48 1.7 11.29C1.51 11.1 1.26 11 1 11C0.73 11 0.48 11.1 0.29 11.29C0.1 11.48 0 11.73 0 12C0 14.37 0.7 16.69 2.02 18.66C3.34 20.64 5.21 22.17 7.4 23.08C9.6 23.99 12.01 24.23 14.34 23.76C16.66 23.3 18.8 22.16 20.48 20.48C22.16 18.8 23.3 16.66 23.76 14.34C24.23 12.01 23.99 9.6 23.08 7.4C22.17 5.21 20.64 3.34 18.66 2.02C16.69 0.7 14.37 0 12 0L12 0Z" fill="#00303C" fill-opacity="1.000000" fill-rule="nonzero"/>
		<path id="Vector" d="M12 6C11.73 6 11.48 6.1 11.29 6.29C11.1 6.48 11 6.73 11 7L11 12C11 12.26 11.1 12.51 11.29 12.7L14.29 15.7C14.48 15.88 14.73 15.99 14.99 15.98C15.25 15.98 15.5 15.88 15.69 15.69C15.88 15.5 15.98 15.25 15.98 14.99C15.99 14.73 15.88 14.48 15.7 14.29L13 11.58L13 7C13 6.73 12.89 6.48 12.7 6.29C12.51 6.1 12.26 6 12 6Z" fill="#00303C" fill-opacity="1.000000" fill-rule="nonzero"/>
	</g>
</svg>
