<svg width="51.240906" height="51.240875" viewBox="0 0 51.2409 51.2409" fill="none" xmlns="http://www.w3.org/2000/svg" xmlns:xlink="http://www.w3.org/1999/xlink">
	<desc>
			Created with Pixso.
	</desc>
	<defs/>
	<path id="Vector" d="M0 0L38.56 0C45.56 0 51.24 5.67 51.24 12.67L51.24 38.56C51.24 45.56 45.56 51.24 38.56 51.24L0 51.24L0 0Z" fill="#3752FD" fill-opacity="1.000000" fill-rule="nonzero"/>
	<path id="Vector" d="M10.03 10.03L36.42 10.03C39.34 10.03 41.7 12.4 41.7 15.31L41.7 36.42C41.7 39.34 39.34 41.7 36.42 41.7L15.31 41.7C12.4 41.7 10.03 39.34 10.03 36.42L10.03 10.03Z" fill="#FFFFFF" fill-opacity="1.000000" fill-rule="nonzero"/>
	<path id="Vector" d="M15.84 15.84L31.19 15.84C33.52 15.84 35.42 17.73 35.42 20.07L35.42 30.13C35.42 33.05 33.05 35.42 30.13 35.42L20.07 35.42C17.73 35.42 15.84 33.52 15.84 31.19L15.84 15.84Z" fill="#3752FD" fill-opacity="1.000000" fill-rule="nonzero"/>
</svg>
